<?xml version="1.0" encoding="UTF-8"?> <svg xmlns="http://www.w3.org/2000/svg" id="レイヤー_1" data-name="レイヤー 1" viewBox="0 0 60 27.67"><defs><style>.cls-1{fill:#00ac97;}</style></defs><title>logo_hpns_resized</title><path class="cls-1" d="M24,19.15v9.51H22.91V20a7.24,7.24,0,0,1-4.59-5.08c0-.12-.06-.24-.08-.35a7.16,7.16,0,0,1-.13-1.38h0V6.91h1.12v6.27h0a5.94,5.94,0,0,0,.25,1.73,6.09,6.09,0,0,0,3.44,3.88A5.53,5.53,0,0,0,24,19.15ZM2.41,6.91V28.66H3.52V6.91Zm13.24,0V28.66h1.12V6.91ZM34,6.91V28.66H35.1V6.9Zm18.88,3.72H48.57v1.11h4.28V28.66H54v-18Zm4.84,0H56.58v18H57.7V11.74h4.54V10.62Zm4.54-1.86H48.58V9.88h6.15V28.66h1.11V9.88h6.4ZM48.58,8H62.24V6.9H48.58ZM11.93,19.22H6.13v9.44H7.25V20.33h4.68v8.33h1.12V19.22ZM13.79,6.91V17.35H5.39V6.91H4.27V28.66H5.39V18.47h8.4V28.66h1.12V6.91Zm-1.86,0v8.58H7.25V6.91H6.13v9.7h6.92V6.91Zm34.63,6.63a5.38,5.38,0,0,0-1.13-2.92,4.14,4.14,0,0,0-.44-.5,5.36,5.36,0,0,0-7.59,0,4.23,4.23,0,0,0-.44.51V6.9H35.84v7h0V28.66H37v-15a4.25,4.25,0,0,1,8.46-.11V28.66h1.12V13.91h0c0-.12,0-.24,0-.37ZM27.72,6.91v6.27h0a2.38,2.38,0,1,1-4.76,0h0V6.91H21.83v6.27h0a3.48,3.48,0,0,0,.28,1.38,2.31,2.31,0,0,0,.18.35,3.4,3.4,0,0,0,.57.74,3.49,3.49,0,0,0,4.95,0,3.3,3.3,0,0,0,.56-.73,3.84,3.84,0,0,0,.18-.35,3.66,3.66,0,0,0,.28-1.38h0V6.91Zm3,6.27V6.91H29.59v6.41a4.38,4.38,0,0,1-.27,1.34,4.24,4.24,0,0,1-5.46,2.5,4.1,4.1,0,0,1-1.52-1,4.21,4.21,0,0,1-1.25-3h0V6.91H20v6.27h0a5.39,5.39,0,0,0,.18,1.38c0,.12.07.23.11.35a5.34,5.34,0,0,0,4.52,3.6V28.67H25.9V18.51a5.36,5.36,0,0,0,4.52-3.6c0-.12.07-.23.1-.35a5.15,5.15,0,0,0,.18-1.23v-.15Zm1.86,0V6.91H31.44v6.42a6,6,0,0,1-3.68,5.46,7.31,7.31,0,0,1-1.12.36v9.51h1.12V20a7.24,7.24,0,0,0,4.6-5.08c0-.12,0-.24.07-.35a7.11,7.11,0,0,0,.13-1.22Zm15.86.3A7.06,7.06,0,0,0,47.29,10a7.21,7.21,0,0,0-8.47-2.94V6.9H37.71v2a6.65,6.65,0,0,1,1.11-.61,6.09,6.09,0,0,1,8.47,5.22V28.66h1.12V13.91h0a3.09,3.09,0,0,0,0-.43Zm-3.72.22a3.46,3.46,0,0,0-1-2.26l-.1-.1a3.5,3.5,0,0,0-4.76,0l-.09.09a3.37,3.37,0,0,0-.85,1.37,2.68,2.68,0,0,0-.07.27,3.31,3.31,0,0,0-.1.83h0v.41h0V28.66h1.12V13.91h0A2.38,2.38,0,0,1,42,11.68a2.5,2.5,0,0,1,.86.54,2.4,2.4,0,0,1,.69,1.55V28.66h1.11V13.91h0a1.48,1.48,0,0,0,0-.21Z" transform="translate(-2.24 -1)"></path><path class="cls-1" d="M3.24,1h-1V4.11c0,.86.38,1.3,1.12,1.3h.52v-1l-.48,0c-.11,0-.16-.13-.16-.31V2.88h.64v-1H3.24Z" transform="translate(-2.24 -1)"></path><path class="cls-1" d="M6.88,3.81a.76.76,0,0,1-.28.49.86.86,0,0,1-.55.19.73.73,0,0,1-.56-.25.78.78,0,0,1-.24-.57.84.84,0,0,1,.19-.57A.58.58,0,0,1,6,2.84a.55.55,0,0,1,.35.1l-.86.67.49.65L7.72,2.91l0-.05A1.67,1.67,0,0,0,7,2.08a2,2,0,0,0-1-.25,1.62,1.62,0,0,0-1.27.53,1.88,1.88,0,0,0-.49,1.3A1.87,1.87,0,0,0,4.76,5,1.61,1.61,0,0,0,6,5.49,1.81,1.81,0,0,0,7.88,3.93V3.87l-1-.11Z" transform="translate(-2.24 -1)"></path><path class="cls-1" d="M9.76,1.83a1.56,1.56,0,0,0-1.25.57,2,2,0,0,0-.45,1.31A1.81,1.81,0,0,0,8.51,5a1.58,1.58,0,0,0,1.21.51l.62-.09V4.29l-.07,0a1,1,0,0,1-.49.12.63.63,0,0,1-.51-.22.81.81,0,0,1-.21-.55,1,1,0,0,1,.19-.59.58.58,0,0,1,.5-.25.86.86,0,0,1,.52.15.57.57,0,0,1,.22.47v2h1v-2A1.45,1.45,0,0,0,11,2.24,1.78,1.78,0,0,0,9.76,1.83Z" transform="translate(-2.24 -1)"></path><path class="cls-1" d="M16.38,2.14a1.41,1.41,0,0,0-.93-.31,1.36,1.36,0,0,0-1.06.5,1.33,1.33,0,0,0-1-.5,1.67,1.67,0,0,0-1,.27A1.09,1.09,0,0,0,12,3v2.4h1V3.32c0-.33.14-.49.43-.49s.43.16.43.49V5.41h1V3.09s.06-.11.17-.16l.26-.1c.3,0,.43.16.43.49V5.41h1V3A1.1,1.1,0,0,0,16.38,2.14Z" transform="translate(-2.24 -1)"></path></svg> 