<?xml version="1.0" encoding="UTF-8"?> <svg xmlns="http://www.w3.org/2000/svg" id="レイヤー_1" data-name="レイヤー 1" viewBox="0 0 419.44 193.46"><defs><style>.cls-1{fill:#00ac97;}</style></defs><title>5アートボード 1</title><path class="cls-1" d="M152.34,126.91v66.54h-7.81V132.81a50.68,50.68,0,0,1-32.15-35.54c-.2-.81-.37-1.63-.53-2.45a51.14,51.14,0,0,1-.92-9.65h0V41.33h7.82V85.18h0a43.14,43.14,0,0,0,1.74,12.11,42.9,42.9,0,0,0,24.07,27.14A41.66,41.66,0,0,0,152.34,126.91ZM1.14,41.33V193.46H8.95V41.33Zm92.63,0V193.46h7.81V41.33Zm128.15,0V193.46h7.81V41.29Zm132,26H323.94v7.81h29.94V193.46h7.81V67.32Zm33.83,0h-7.81V193.46h7.81V75.13h31.73V67.32Zm31.73-13h-95.5v7.81h43V193.46h7.81V62.12h44.74Zm-95.5-5.21h95.5V41.29h-95.5ZM67.74,127.4H27.17v66.06H35V135.21H67.74v58.24h7.82V127.4Zm13-86.07v73H22v-73H14.16V193.46H22V122.19H80.75v71.26h7.81V41.33Zm-13,0v60H35v-60H27.17v67.85H75.55V41.33Zm242.1,46.38A37.08,37.08,0,0,0,302,67.28a40.3,40.3,0,0,0-3.08-3.5,37.53,37.53,0,0,0-53.07,0,36.69,36.69,0,0,0-3.13,3.57V41.29h-7.81L235,88.5c0,.6,0,1.2,0,1.82h0V193.46h7.81V88.72A29.71,29.71,0,0,1,302,88V193.46h7.81V90.31h.09C309.94,89.45,309.89,88.58,309.84,87.72ZM178.13,41.33V85.18h0a16.65,16.65,0,0,1-28.42,11.77,16.7,16.7,0,0,1-4.87-11.77h-.07V41.33h-7.81V85.18H137a24.28,24.28,0,0,0,2,9.65,23.58,23.58,0,0,0,1.22,2.45,24.9,24.9,0,0,0,4,5.19,24.49,24.49,0,0,0,38.54-5.19,25.39,25.39,0,0,0,1.23-2.46,24.46,24.46,0,0,0,2-9.65h0V41.33ZM199,85.18V41.33h-7.82V86.19a29.42,29.42,0,0,1-1.85,9.37,29.7,29.7,0,0,1-48.84,10.63,29.6,29.6,0,0,1-8.7-21h0V41.33h-7.81V85.18h0a37.78,37.78,0,0,0,1.25,9.65c.21.83.47,1.65.74,2.45a37.53,37.53,0,0,0,31.61,25.21v71h7.82v-71A37.55,37.55,0,0,0,197,97.28c.27-.81.52-1.63.75-2.45a38.4,38.4,0,0,0,1.22-8.6c0-.35,0-.69,0-1.05Zm13,0V41.33h-7.82V86.25a42.41,42.41,0,0,1-1.67,10.82,42.9,42.9,0,0,1-24.12,27.33,41.77,41.77,0,0,1-7.81,2.5v66.55h7.81V132.81a50.63,50.63,0,0,0,32.17-35.54c.2-.81.37-1.63.54-2.45A52.65,52.65,0,0,0,212,86.3c0-.37,0-.75,0-1.12Zm110.88,2.09A50,50,0,0,0,315,63.16a50.58,50.58,0,0,0-59.27-20.58V41.29H248v14A43,43,0,0,1,255.77,51,42.71,42.71,0,0,1,315,87.53V193.46h7.81V90.31h.1C323,89.29,322.91,88.28,322.85,87.27Zm-26,1.58A24.29,24.29,0,0,0,289.71,73c-.23-.23-.46-.44-.7-.66a24.44,24.44,0,0,0-33.24.05l-.64.61a24.17,24.17,0,0,0-5.92,9.6c-.21.62-.4,1.25-.55,1.89a24.68,24.68,0,0,0-.69,5.8h0v2.88h0V193.45h7.82V90.31h0a16.37,16.37,0,0,1,1.06-5.8,16.62,16.62,0,0,1,27.34-6A16.4,16.4,0,0,1,289,89.33V193.46h7.81V90.32h.06C296.87,89.82,296.86,89.33,296.82,88.84Z"></path><path class="cls-1" d="M6.94,0H0V21.78c0,6,2.63,9.09,7.83,9.09h3.62v-7l-3.35-.14c-.78-.24-1.15-.94-1.15-2.15v-8.4h4.5V6.36H6.94Z"></path><path class="cls-1" d="M32.45,19.7a5.39,5.39,0,0,1-2,3.41,5.94,5.94,0,0,1-3.86,1.31,5.2,5.2,0,0,1-3.91-1.73,5.64,5.64,0,0,1-1.66-4,6.28,6.28,0,0,1,1.32-4,4.27,4.27,0,0,1,3.58-1.83,3.62,3.62,0,0,1,2.42.75l-6,4.64,3.45,4.55,12.49-9.45L38.15,13A11.55,11.55,0,0,0,33.4,7.59a13.81,13.81,0,0,0-7-1.79,11.59,11.59,0,0,0-8.86,3.7,13,13,0,0,0-3.41,9.15,12.88,12.88,0,0,0,3.44,9.1,11.61,11.61,0,0,0,8.84,3.7A12.84,12.84,0,0,0,39.43,20.51l.07-.4-7-.76Z"></path><path class="cls-1" d="M52.58,5.8a11,11,0,0,0-8.76,4,13.75,13.75,0,0,0-3.14,9.17,12.34,12.34,0,0,0,3.15,8.66,11,11,0,0,0,8.46,3.57l4.33-.64,0-.32V23l-.53.25a8.1,8.1,0,0,1-3.37.85,4.66,4.66,0,0,1-3.6-1.56,5.49,5.49,0,0,1-1.45-3.83A6.81,6.81,0,0,1,49,14.6a4.1,4.1,0,0,1,3.5-1.78,5.76,5.76,0,0,1,3.6,1.08,3.83,3.83,0,0,1,1.55,3.23V30.88h6.94V16.81A10.21,10.21,0,0,0,61,8.7,12.49,12.49,0,0,0,52.58,5.8Z"></path><path class="cls-1" d="M98.84,8A9.85,9.85,0,0,0,92.36,5.8,9.66,9.66,0,0,0,84.9,9.32a9.4,9.4,0,0,0-7-3.52,11.71,11.71,0,0,0-6.94,1.91,7.48,7.48,0,0,0-3.06,6.4V30.88h7.23V16.26c0-2.35,1-3.44,3-3.44s3,1.09,3,3.44V30.88h7.24V14.66c0-.36.4-.76,1.16-1.16l1.85-.68c2.06,0,3,1.09,3,3.44V30.88h7.24V14.11A7.64,7.64,0,0,0,98.84,8Z"></path></svg> 